<?xml version="1.0" standalone="no"?>
<!DOCTYPE svg PUBLIC "-//W3C//DTD SVG 20010904//EN"
 "http://www.w3.org/TR/2001/REC-SVG-20010904/DTD/svg10.dtd">
<svg version="1.0" xmlns="http://www.w3.org/2000/svg"
 width="103.000000pt" height="103.000000pt" viewBox="0 0 103.000000 103.000000"
 preserveAspectRatio="xMidYMid meet">
<metadata>
Created by potrace 1.11, written by Peter Selinger 2001-2013
</metadata>
<g transform="translate(0.000000,103.000000) scale(0.100000,-0.100000)"
fill="#000000" stroke="none">
<path d="M936 965 c-5 -21 -11 -24 -31 -19 -28 7 -30 2 -14 -28 8 -15 8 -27
-2 -44 -16 -31 -6 -40 27 -25 22 10 30 9 44 -4 25 -22 40 -18 40 10 0 14 7 28
15 31 23 9 18 23 -10 30 -18 4 -26 15 -31 40 -7 40 -29 45 -38 9z"/>
<path d="M595 923 c-19 -21 -47 -62 -62 -90 l-28 -53 -57 0 c-33 0 -72 -7 -92
-17 -35 -16 -36 -16 -58 8 -37 39 -89 79 -102 79 -26 0 -47 -27 -70 -90 -14
-36 -37 -96 -51 -135 -15 -38 -37 -82 -51 -96 l-24 -25 0 -232 c1 -144 5 -230
11 -227 5 4 9 -1 9 -9 0 -61 123 21 136 90 3 19 1 54 -5 78 -9 37 -8 52 10
102 19 53 20 70 13 179 -16 233 -6 342 30 333 7 -2 52 -39 100 -83 48 -44 97
-83 109 -87 47 -14 122 -8 155 12 36 22 38 27 18 49 -12 14 -13 26 -2 81 16
83 41 140 60 140 19 0 72 -52 116 -114 36 -50 61 -53 33 -4 -27 46 -115 136
-140 143 -18 5 -31 -2 -58 -32z m-66 -239 c2 -2 -16 -4 -42 -4 -25 0 -49 5
-52 11 -5 7 8 8 41 3 27 -3 51 -8 53 -10z m-387 -211 c5 -25 -3 -73 -12 -73
-4 0 -7 20 -7 45 0 44 12 62 19 28z m-16 -184 c-13 -32 -14 -32 -15 -8 -1 14
4 30 11 37 19 19 20 7 4 -29z m-36 -121 c-1 -26 -22 -58 -39 -58 -16 0 -14 32
5 58 20 28 34 28 34 0z m30 -72 c0 -3 -4 -8 -10 -11 -5 -3 -10 -1 -10 4 0 6 5
11 10 11 6 0 10 -2 10 -4z"/>
<path d="M923 787 c-28 -41 -38 -67 -25 -67 11 0 62 74 62 90 0 19 -15 10 -37
-23z"/>
<path d="M647 733 c-3 -5 26 -16 64 -24 71 -16 104 -8 52 12 -39 16 -109 23
-116 12z"/>
<path d="M850 650 c0 -5 18 -24 41 -42 23 -18 53 -53 68 -78 23 -40 26 -55 26
-141 0 -89 -2 -98 -27 -132 -16 -19 -28 -38 -28 -40 0 -3 23 -21 50 -41 56
-40 72 -25 18 18 l-32 25 24 48 c34 66 34 175 1 251 -30 67 -141 171 -141 132z"/>
<path d="M634 606 c-80 -80 -11 -190 85 -138 61 33 73 120 23 158 -31 24 -72
16 -108 -20z m94 -2 c49 -34 8 -124 -57 -124 -61 0 -66 85 -8 121 39 23 37 23
65 3z"/>
<path d="M660 555 c-16 -19 -5 -47 17 -43 11 2 18 12 18 27 0 29 -17 37 -35
16z"/>
<path d="M850 510 c-8 -5 -23 -11 -33 -14 -35 -11 -32 -37 7 -72 21 -19 42
-32 46 -29 16 10 40 74 33 92 -11 31 -28 38 -53 23z m20 -60 c-6 -11 -16 -18
-22 -14 -6 4 -6 9 -1 13 5 3 13 15 17 26 5 12 10 15 13 8 2 -7 -1 -21 -7 -33z"/>
<path d="M390 501 c0 -5 10 -11 23 -13 17 -3 14 -6 -15 -12 -66 -14 -41 -27
47 -25 94 2 104 11 44 41 -36 19 -99 24 -99 9z"/>
<path d="M549 372 c-18 -65 -17 -126 2 -148 17 -21 55 -17 79 8 13 14 32 22
57 22 104 2 32 154 -82 171 l-40 7 -16 -60z m101 13 c36 -18 60 -52 60 -83 0
-28 -24 -39 -46 -21 -14 11 -20 9 -43 -19 -14 -18 -31 -32 -37 -32 -26 0 -32
67 -12 131 13 44 30 49 78 24z"/>
<path d="M331 356 c-7 -8 -21 -12 -31 -9 -48 13 -28 -58 26 -93 22 -15 27 -15
40 -2 22 22 31 98 13 109 -20 13 -35 11 -48 -5z m34 -43 c-10 -41 -19 -46 -40
-23 -17 19 -17 20 -1 14 12 -5 19 -1 23 15 3 11 10 21 15 21 6 0 7 -11 3 -27z"/>
</g>
</svg>
